<svg xmlns="http://www.w3.org/2000/svg" width="14" height="22" viewBox="0 0 14 22" shape-rendering="crispEdges">
  <!-- finger -->
  <rect x="4" y="0" width="3" height="1" fill="black"/>
  <rect x="3" y="1" width="1" height="1" fill="black"/>
  <rect x="7" y="1" width="1" height="1" fill="black"/>
  <rect x="3" y="2" width="1" height="5" fill="black"/>
  <rect x="7" y="2" width="1" height="2" fill="black"/>
  <rect x="4" y="1" width="3" height="6" fill="white"/>
  <!-- knuckle join -->
  <rect x="7" y="4" width="3" height="1" fill="black"/>
  <rect x="10" y="5" width="1" height="4" fill="black"/>
  <rect x="7" y="5" width="3" height="4" fill="white"/>
  <!-- middle knuckle -->
  <rect x="10" y="4" width="3" height="1" fill="black"/>
  <rect x="13" y="5" width="1" height="4" fill="black"/>
  <rect x="10" y="5" width="3" height="4" fill="white"/>
  <!-- palm -->
  <rect x="2" y="7" width="1" height="1" fill="black"/>
  <rect x="3" y="8" width="1" height="1" fill="black"/>
  <rect x="2" y="8" width="1" height="1" fill="black"/>
  <rect x="1" y="9" width="1" height="1" fill="black"/>
  <rect x="0" y="10" width="1" height="7" fill="black"/>
  <rect x="1" y="17" width="13" height="1" fill="black"/>
  <rect x="13" y="9" width="1" height="8" fill="black"/>
  <rect x="1" y="9" width="12" height="8" fill="white"/>
</svg>
